# xmcd
#
# Track frame offsets: 
#        150
#        17100
#        39825
#        67957
#
# Disc length: 4440 seconds
#
# Revision: 1
# Processed by: cddbd v1.5.2PL0 Copyright (c) Steve Scherf et al.
# Submitted via: ExactAudioCopy v1.0b3
#
DISCID=26115604
DTITLE=BoA - Be the one
DYEAR=2004
DGENRE=JPop
TTITLE0=Be the one
TTITLE1=Be the one (K-Muto Groovediggerz Remix)
TTITLE2=Be the one (Instrumental)
TTITLE3=CCCD
EXTD=YEAR: 2004
EXTT0=
EXTT1=
EXTT2=
EXTT3=
PLAYORDER=
